<mxfile host="app.diagrams.net" modified="2024-04-23T15:03:34.914Z" agent="Mozilla/5.0 (Windows NT 10.0; Win64; x64; rv:109.0) Gecko/20100101 Firefox/115.0" version="24.2.7" etag="IZB2akPxXgj4OH1qIkK7" type="github">
  <diagram name="Page-1" id="ugHfYF7AokP7zmJMkbcg">
    <mxGraphModel>
      <root>
        <mxCell id="0" />
        <mxCell id="1" parent="0" />
      </root>
    </mxGraphModel>
  </diagram>
</mxfile>
